<?xml version="1.0" encoding="utf-8"?>
<!-- Generator: Adobe Illustrator 21.1.0, SVG Export Plug-In . SVG Version: 6.00 Build 0)  -->
<svg version="1.1" id="Capa_1" xmlns="http://www.w3.org/2000/svg" xmlns:xlink="http://www.w3.org/1999/xlink" x="0px" y="0px"
	 viewBox="0 0 800 800" style="enable-background:new 0 0 800 800;" xml:space="preserve">
<style type="text/css">
	.st0{fill:#FFFFFF;}
</style>
<g>
	<g>
		<path class="st0" d="M127.9,249.5c-35.6,34.5-55.6,77.4-64.3,125.7c-2.2,12.1-2.9,24.4-4.4,36.6c-0.2,1.3-0.4,2.6-0.7,4
			c0,11.9,0,23.8,0,35.7c0.8,8.2,1.5,16.4,2.3,24.5c3.9,38.5,13.4,75.7,26.1,112.2c17.4,49.6,42.1,94.8,73.7,135.9
			c1,1.3,2,2.6,2.9,3.9c13.5,17.8,27.6,35.1,45.4,49c4,3.2,8.2,6,12.4,8.5c22.8,15.8,48.2,18,74.6,9.8c0.7-0.2,1.4-0.5,2.2-0.7
			c11.8-3.1,23.3-7.3,34.6-11.9c7.9-3.3,15.9-6.2,24.1-8.5c13.3-3.7,42.5-6.4,43.1-6.4c0.7,0,1.4,0,2.1,0
			c14.1,0.3,27.7,2.7,41.1,6.4c8.1,2.4,16.2,5.2,24.1,8.5c11.3,4.7,22.8,8.9,34.6,11.9c0.7,0.2,1.4,0.5,2.2,0.7
			c26.4,8.2,51.7,6,74.6-9.8c4.2-2.5,8.3-5.3,12.4-8.5c17.8-13.9,31.8-31.2,45.4-49c1-1.3,2-2.6,2.9-3.9
			c31.5-41.1,56.3-86.3,73.7-135.9c12.8-36.5,22.3-73.7,26.1-112.2c0.8-8.2,1.5-16.4,2.3-24.5c0-11.9,0-23.8,0-35.7
			c-0.2-1.3-0.5-2.6-0.7-4c-1.4-12.2-2.2-24.5-4.4-36.6c-8.7-48.3-28.7-91.3-64.3-125.7c-4.8-4.6-9.7-9-14.8-13.1
			c-27.7-23.3-60.6-35.6-96.7-41.6c-36.7-6.1-71.2,1.9-105.2,14.2c-17.5,6.3-54.5,19.1-55.3,19.3c-0.9-0.2-37.8-13-55.3-19.3
			c-34.1-12.3-68.5-20.3-105.2-14.2c-36.1,6-69.1,18.3-96.7,41.6C137.6,240.5,132.7,244.8,127.9,249.5z"/>
		<path class="st0" d="M288.7,137.6c18.5,20,40.1,35.4,66.7,42.8c13.1,3.7,26.5,5,40.1,4.3c3.2-0.2,3.9-1.5,4.1-4.4
			c2.8-40.8-10.1-76.6-34.4-108.9c-28.9-38.3-67.4-60.8-114-70.2c-2.2-0.4-4.5-0.8-6.7-1.2c-1.9,0-3.8,0-5.7,0
			c-1.1,15.3-0.7,30.5,2.1,45.7C247.5,81.1,264.4,111.3,288.7,137.6z"/>
	</g>
</g>
</svg>
