<?xml version="1.0" encoding="utf-8"?>
<!-- Generator: Adobe Illustrator 21.1.0, SVG Export Plug-In . SVG Version: 6.00 Build 0)  -->
<svg version="1.1" id="Layer_1" xmlns="http://www.w3.org/2000/svg" xmlns:xlink="http://www.w3.org/1999/xlink" x="0px" y="0px"
	 viewBox="0 0 432 432" style="enable-background:new 0 0 432 432;" xml:space="preserve">
<style type="text/css">
	.st0{opacity:0.8;}
	.st1{fill:#FFFFFF;}
</style>
<g class="st0">
	<path class="st1" d="M332,270.1c0.1,2.7-0.1,5.7-0.3,8.7c-0.7,8.8-2.2,17.5-4.8,25.9c-1.6,5.4-3.6,10.6-6,15.7
		c-3.8,8.3-8.5,16.1-14.1,23.4c-1.8,2.3-3.6,4.5-5.7,6.6c-1.2,1.2-2.3,2.5-3.5,3.6c-4.2,4.1-8.7,7.9-13.4,11.3
		c-5.7,4.1-11.8,7.7-18.2,10.8c-3.1,1.5-6.2,2.9-9.4,4.2c-0.3,0.1-0.6,0.2-0.9,0.3c-0.1,0-0.1-0.1-0.2-0.1c0,0,0-0.1,0-0.1
		c0.1-0.2,0.2-0.3,0.3-0.4c1.2-1.5,2.4-3,3.8-4.4c4.4-4.1,8.2-8.6,11.6-13.5c3-4.4,5.5-9.1,7.4-14.1c1.9-4.8,3.2-9.8,3.9-14.9
		c0.6-4.3,0.8-8.6,0.6-12.9c-0.5-8.9-2.7-17.5-6.4-25.6c-1.8-4.1-4-7.9-6.4-11.7c-4.3-6.9-9.1-13.5-14-20c-3.4-4.5-6.9-9.1-10-13.8
		c-2.6-4-5-8.1-7.1-12.4c-3.1-6.5-5.4-13.2-6.8-20.2c-0.9-4.1-1.5-8.3-1.9-12.5c-0.2-2.1-0.4-4.1-0.5-6.2c0-0.4,0.1-0.9-0.4-1
		c-0.4-0.1-0.6,0.2-0.9,0.5c-2.5,2.3-5,4.6-7.3,7.1c-1.2,1.3-2.4,2.6-3.6,3.9c-2.5,2.8-4.7,5.7-6.9,8.7c-3.6,5-6.7,10.3-9.4,15.9
		c-3.3,6.9-5.8,14.1-7.6,21.5c-1.1,4.4-1.9,8.8-2.4,13.2c-0.4,2.8-0.6,5.6-0.8,8.4c-0.2,2.1-0.1,4.1-0.3,6.2
		c-0.2,2.2-0.2,4.3-0.1,6.5c0.2,3,0.1,6,0.4,9c0.2,1.7,0.2,3.4,0.3,5.1c0,0.6,0.1,1.2,0.2,1.8c0,0.7-0.2,0.9-0.9,0.7
		c-1.1-0.3-2.3-0.7-3.4-1.2c-5.3-2.3-9.2-6.2-12-11.2c-2.1-3.9-3.6-8-4.6-12.3c-0.9-3.7-1.5-7.4-2-11.2c-0.2-1.1-0.2-2.2-0.4-3.3
		c0-0.1,0-0.3-0.2-0.3c-0.1,0-0.3,0.1-0.3,0.1c-0.9,1-1.9,2.1-2.8,3.1c-5,6.1-8.8,13-11.3,20.5c-1.6,4.8-2.8,9.7-3.5,14.8
		c-0.6,4.7-0.9,9.5-0.7,14.2c0.2,4.2,0.6,8.3,1.4,12.5c1.3,7.2,3.4,14.2,6.4,20.9c3.5,7.9,8,15.1,13.5,21.7c1.6,2,3.3,3.9,5.2,5.7
		c0.2,0.2,0.4,0.4,0.6,0.7c0.1,0.1,0.1,0.3,0.1,0.4c0,0.1-0.2,0.1-0.3,0.1c-0.5-0.2-0.9-0.3-1.4-0.5c-2.5-1.1-5-2.1-7.5-3.2
		c-7.8-3.6-15.2-8-22-13.2c-4.8-3.7-9.2-7.7-13.2-12.1c-4.6-5-8.5-10.4-12.1-16.1c-2.5-3.9-4.8-7.9-6.9-12.1c-2.1-4.2-4-8.5-5.6-13
		c-2.3-6.3-4.1-12.8-5.3-19.5c-0.6-3.3-1-6.5-1.3-9.8c-0.2-3.2-0.5-6.5-0.4-9.8c0-2.6,0.2-5.2,0.4-7.8c0.3-3.6,0.8-7.1,1.4-10.6
		c0.8-4.3,1.8-8.6,3-12.8c2.7-9.3,6.5-18.1,11-26.5c2.9-5.4,6.1-10.6,9.5-15.7c3.2-4.7,6.4-9.4,9.9-13.9c4.8-6.4,9.7-12.9,14.5-19.3
		c4.5-6,8.9-12.2,13-18.5c4.9-7.6,9.5-15.4,13.3-23.6c3.5-7.4,6.4-15.1,8.5-23c1.3-5,2.3-10,3.1-15.1c0.5-3.3,0.9-6.6,1.2-10
		c0.3-3.6,0.7-7.3,1-10.9c0.3-3.3,0.7-6.7,1-10c0.1-1.5,0.5-1.4,1.5-0.8c3.8,2.3,7.5,4.8,11.2,7.3c4.2,2.9,8.4,6,12.4,9.3
		c2.4,1.9,4.7,3.9,6.9,5.9c3,2.7,6,5.5,8.8,8.4c3.3,3.4,6.4,6.8,9.3,10.4c3.7,4.5,7.1,9.1,10.2,14c2.3,3.5,4.4,7.1,6.4,10.8
		c2.9,5.4,5.4,11.1,7.7,16.8c2.4,6.2,4.3,12.5,5.8,18.9c1.4,5.7,2.5,11.5,3.2,17.4c0.5,3.4,0.8,6.8,1.1,10.2
		c0.3,4.1,0.5,8.2,0.5,12.3c0,1.5,0.1,2.9,0.2,4.4c0,0.6,0.2,0.7,0.7,0.4c1.3-0.8,2.6-1.7,3.8-2.6c5.3-4.2,9.2-9.5,11.7-15.7
		c1.7-4.2,2.9-8.6,3.8-13c0-0.1,0-0.2,0-0.3c0.2-0.5,0.1-1.2,0.5-1.6c0.6-0.5,1.3-0.6,2.1-0.8c0.3-0.1,0.5,0.1,0.7,0.3
		c0.2,0.3,0.3,0.6,0.5,0.9c2,4.5,4.2,8.9,6.3,13.4c3.3,6.9,6.6,13.8,9.7,20.8c2.2,5.1,4.3,10.3,6.1,15.6c2.2,6.3,4.1,12.7,5.6,19.1
		c1.1,4.8,2.1,9.6,2.8,14.5c0.4,2.6,0.7,5.1,0.9,7.7c0.2,1.8,0.3,3.5,0.4,5.3C331.9,265.1,332,267.5,332,270.1z"/>
</g>
</svg>
